# xmcd
#
# Track frame offsets: 
#        150
#        18260
#        37359
#        55424
#        74395
#        89720
#        106252
#        125644
#        144108
#        162930
#        180625
#        198972
#        217709
#        241428
#        260258
#        280665
#        298787
#
# Disc length: 4219 seconds
#
# Revision: 0
# Processed by: cddbd v1.5.2PL0 Copyright (c) Steve Scherf et al.
# Submitted via: ExactAudioCopy v0.95b2
#
DISCID=fc107911
DTITLE=∞s§´™k§l - in snowflakes
DYEAR=1996
DGENRE=(146)JPop
TTITLE0=1 √Ë«U«≈«Ë«µ
TTITLE1=2 Star Talk
TTITLE2=3 √Ë«U«≈«Ë«µ (Original Karaoke)
TTITLE3=4 Star Talk (Original Karaoke)
TTITLE4=01 15∑≥«U®p«_
TTITLE5=02 §”∂ß«U§@§È
TTITLE6=03 ∆Ë«Q«F«O®£«F™≈
TTITLE7=04 26Æ…«U«¿«£«Â«≥
TTITLE8=05 SAYONARA
TTITLE9=06 ©u∏`«U«Q∆Í©˙§È
TTITLE10=07 •’∆Í«⁄«—«Â§@
TTITLE11=08 «©«Â«~«R«Q«p«Q∆Í«N
TTITLE12=09 §∏Æ«N«@∆Ò
TTITLE13=10 I will follow you...
TTITLE14=11 Flowers
TTITLE15=12 √Ë«U«≈«Ë«µ
TTITLE16=13 Here I am°„™_∆Û«F∆ÍÆ…«V™_∆˜«W∆Í∆Í°„
EXTD=
EXTT0=
EXTT1=
EXTT2=
EXTT3=
EXTT4=
EXTT5=
EXTT6=
EXTT7=
EXTT8=
EXTT9=
EXTT10=
EXTT11=
EXTT12=
EXTT13=
EXTT14=
EXTT15=
EXTT16=
PLAYORDER=
